<svg width="44" height="44" viewBox="0 0 44 44" fill="none" xmlns="http://www.w3.org/2000/svg">
<rect width="44" height="44" rx="22" fill="#E1F3FF"/>
<mask id="mask0_40_2193" style="mask-type:alpha" maskUnits="userSpaceOnUse" x="8" y="8" width="28" height="28">
<rect x="8" y="8" width="28" height="28" fill="#D9D9D9"/>
</mask>
<g mask="url(#mask0_40_2193)">
<path d="M17.9166 33.6666V31.9166L20.2499 30.1666V23.7499L10.3333 26.6666V24.3333L20.2499 18.4999V12.0833C20.2499 11.5971 20.4201 11.1839 20.7603 10.8437C21.1006 10.5034 21.5138 10.3333 21.9999 10.3333C22.486 10.3333 22.8992 10.5034 23.2395 10.8437C23.5798 11.1839 23.7499 11.5971 23.7499 12.0833V18.4999L33.6666 24.3333V26.6666L23.7499 23.7499V30.1666L26.0833 31.9166V33.6666L21.9999 32.4999L17.9166 33.6666Z" fill="#0099FF"/>
</g>
</svg>
